<mxfile host="app.diagrams.net" modified="2023-06-25T08:26:20.282Z" agent="Mozilla/5.0 (Macintosh; Intel Mac OS X 10_15_7) AppleWebKit/605.1.15 (KHTML, like Gecko) Version/15.6.1 Safari/605.1.15" etag="t49N1OVTyv_WCf4O64Hx" version="21.5.0" type="github">
  <diagram name="Page-1" id="IPJ-gEV-Orzk671Ytajc">
    <mxGraphModel dx="954" dy="639" grid="1" gridSize="10" guides="1" tooltips="1" connect="1" arrows="1" fold="1" page="1" pageScale="1" pageWidth="827" pageHeight="1169" math="0" shadow="0">
      <root>
        <mxCell id="0" />
        <mxCell id="1" parent="0" />
        <mxCell id="O2sZND4Lp9p5kaOQLPMZ-5" value="" style="ellipse;whiteSpace=wrap;html=1;" vertex="1" parent="1">
          <mxGeometry x="10" y="10" width="90" height="50" as="geometry" />
        </mxCell>
        <mxCell id="O2sZND4Lp9p5kaOQLPMZ-6" value="" style="ellipse;whiteSpace=wrap;html=1;" vertex="1" parent="1">
          <mxGeometry x="350" y="60" width="90" height="50" as="geometry" />
        </mxCell>
        <mxCell id="O2sZND4Lp9p5kaOQLPMZ-7" value="" style="ellipse;whiteSpace=wrap;html=1;" vertex="1" parent="1">
          <mxGeometry x="250" y="90" width="90" height="50" as="geometry" />
        </mxCell>
        <mxCell id="O2sZND4Lp9p5kaOQLPMZ-8" value="" style="ellipse;whiteSpace=wrap;html=1;" vertex="1" parent="1">
          <mxGeometry x="10" y="150" width="90" height="50" as="geometry" />
        </mxCell>
        <mxCell id="O2sZND4Lp9p5kaOQLPMZ-9" value="" style="ellipse;whiteSpace=wrap;html=1;" vertex="1" parent="1">
          <mxGeometry x="240" y="10" width="90" height="50" as="geometry" />
        </mxCell>
        <mxCell id="O2sZND4Lp9p5kaOQLPMZ-10" value="" style="ellipse;whiteSpace=wrap;html=1;" vertex="1" parent="1">
          <mxGeometry x="130" y="82" width="90" height="50" as="geometry" />
        </mxCell>
        <mxCell id="O2sZND4Lp9p5kaOQLPMZ-11" value="" style="ellipse;whiteSpace=wrap;html=1;" vertex="1" parent="1">
          <mxGeometry x="369" y="140" width="90" height="50" as="geometry" />
        </mxCell>
        <mxCell id="O2sZND4Lp9p5kaOQLPMZ-12" value="" style="ellipse;whiteSpace=wrap;html=1;" vertex="1" parent="1">
          <mxGeometry x="10" y="80" width="90" height="50" as="geometry" />
        </mxCell>
        <mxCell id="O2sZND4Lp9p5kaOQLPMZ-13" value="" style="ellipse;whiteSpace=wrap;html=1;" vertex="1" parent="1">
          <mxGeometry x="130" y="10" width="90" height="50" as="geometry" />
        </mxCell>
        <mxCell id="O2sZND4Lp9p5kaOQLPMZ-15" value="" style="endArrow=none;html=1;rounded=0;entryX=0;entryY=0;entryDx=0;entryDy=0;" edge="1" parent="1" target="O2sZND4Lp9p5kaOQLPMZ-10">
          <mxGeometry width="50" height="50" relative="1" as="geometry">
            <mxPoint x="90" y="50" as="sourcePoint" />
            <mxPoint x="150" y="80" as="targetPoint" />
          </mxGeometry>
        </mxCell>
        <mxCell id="O2sZND4Lp9p5kaOQLPMZ-16" value="" style="endArrow=none;html=1;rounded=0;exitX=1;exitY=0;exitDx=0;exitDy=0;" edge="1" parent="1" source="O2sZND4Lp9p5kaOQLPMZ-10">
          <mxGeometry width="50" height="50" relative="1" as="geometry">
            <mxPoint x="194.58718165706455" y="78.13760611431178" as="sourcePoint" />
            <mxPoint x="261" y="56" as="targetPoint" />
            <Array as="points">
              <mxPoint x="261" y="56" />
            </Array>
          </mxGeometry>
        </mxCell>
        <mxCell id="O2sZND4Lp9p5kaOQLPMZ-18" value="" style="endArrow=none;html=1;rounded=0;entryX=0.433;entryY=1.06;entryDx=0;entryDy=0;entryPerimeter=0;" edge="1" parent="1" target="O2sZND4Lp9p5kaOQLPMZ-10">
          <mxGeometry width="50" height="50" relative="1" as="geometry">
            <mxPoint x="170" y="250" as="sourcePoint" />
            <mxPoint x="160" y="140" as="targetPoint" />
          </mxGeometry>
        </mxCell>
        <mxCell id="O2sZND4Lp9p5kaOQLPMZ-19" value="" style="rounded=0;whiteSpace=wrap;html=1;fillColor=#ffe6cc;strokeColor=#d79b00;" vertex="1" parent="1">
          <mxGeometry x="111" y="250" width="120" height="30" as="geometry" />
        </mxCell>
        <mxCell id="O2sZND4Lp9p5kaOQLPMZ-20" value="" style="endArrow=none;html=1;rounded=0;entryX=0.5;entryY=0;entryDx=0;entryDy=0;" edge="1" parent="1" target="O2sZND4Lp9p5kaOQLPMZ-19">
          <mxGeometry width="50" height="50" relative="1" as="geometry">
            <mxPoint x="90" y="120" as="sourcePoint" />
            <mxPoint x="250" y="200" as="targetPoint" />
          </mxGeometry>
        </mxCell>
        <mxCell id="O2sZND4Lp9p5kaOQLPMZ-21" value="" style="endArrow=none;html=1;rounded=0;exitX=1;exitY=1;exitDx=0;exitDy=0;entryX=0.25;entryY=0;entryDx=0;entryDy=0;" edge="1" parent="1" source="O2sZND4Lp9p5kaOQLPMZ-8" target="O2sZND4Lp9p5kaOQLPMZ-19">
          <mxGeometry width="50" height="50" relative="1" as="geometry">
            <mxPoint x="90" y="240" as="sourcePoint" />
            <mxPoint x="140" y="190" as="targetPoint" />
          </mxGeometry>
        </mxCell>
        <mxCell id="O2sZND4Lp9p5kaOQLPMZ-22" value="" style="endArrow=none;html=1;rounded=0;entryX=0.5;entryY=1;entryDx=0;entryDy=0;exitX=0.5;exitY=0;exitDx=0;exitDy=0;" edge="1" parent="1" source="O2sZND4Lp9p5kaOQLPMZ-10" target="O2sZND4Lp9p5kaOQLPMZ-13">
          <mxGeometry width="50" height="50" relative="1" as="geometry">
            <mxPoint x="162.5" y="120" as="sourcePoint" />
            <mxPoint x="179.5" y="60" as="targetPoint" />
          </mxGeometry>
        </mxCell>
        <mxCell id="O2sZND4Lp9p5kaOQLPMZ-23" value="" style="endArrow=none;html=1;rounded=0;entryX=0.233;entryY=1;entryDx=0;entryDy=0;entryPerimeter=0;" edge="1" parent="1" target="O2sZND4Lp9p5kaOQLPMZ-7">
          <mxGeometry width="50" height="50" relative="1" as="geometry">
            <mxPoint x="170" y="250" as="sourcePoint" />
            <mxPoint x="220" y="200" as="targetPoint" />
          </mxGeometry>
        </mxCell>
        <mxCell id="O2sZND4Lp9p5kaOQLPMZ-24" value="" style="endArrow=none;html=1;rounded=0;entryX=0.267;entryY=1.02;entryDx=0;entryDy=0;entryPerimeter=0;" edge="1" parent="1" target="O2sZND4Lp9p5kaOQLPMZ-6">
          <mxGeometry width="50" height="50" relative="1" as="geometry">
            <mxPoint x="200" y="250" as="sourcePoint" />
            <mxPoint x="250" y="200" as="targetPoint" />
          </mxGeometry>
        </mxCell>
        <mxCell id="O2sZND4Lp9p5kaOQLPMZ-25" value="" style="rhombus;whiteSpace=wrap;html=1;fillColor=#ffe6cc;strokeColor=#d79b00;" vertex="1" parent="1">
          <mxGeometry x="106" y="341.27" width="134" height="50" as="geometry" />
        </mxCell>
        <mxCell id="O2sZND4Lp9p5kaOQLPMZ-26" value="" style="rhombus;whiteSpace=wrap;html=1;fillColor=#ffe6cc;strokeColor=#d79b00;" vertex="1" parent="1">
          <mxGeometry x="765" y="334.37" width="110" height="50" as="geometry" />
        </mxCell>
        <mxCell id="O2sZND4Lp9p5kaOQLPMZ-27" value="" style="rhombus;whiteSpace=wrap;html=1;fillColor=#ffe6cc;strokeColor=#d79b00;" vertex="1" parent="1">
          <mxGeometry x="259" y="380" width="151" height="50" as="geometry" />
        </mxCell>
        <mxCell id="O2sZND4Lp9p5kaOQLPMZ-28" value="" style="rhombus;whiteSpace=wrap;html=1;fillColor=#ffe6cc;strokeColor=#d79b00;" vertex="1" parent="1">
          <mxGeometry x="494.38" y="425" width="110" height="50" as="geometry" />
        </mxCell>
        <mxCell id="O2sZND4Lp9p5kaOQLPMZ-29" value="" style="rhombus;whiteSpace=wrap;html=1;fillColor=#ffe6cc;strokeColor=#d79b00;" vertex="1" parent="1">
          <mxGeometry x="480" y="280" width="110" height="50" as="geometry" />
        </mxCell>
        <mxCell id="O2sZND4Lp9p5kaOQLPMZ-30" value="" style="rhombus;whiteSpace=wrap;html=1;fillColor=#ffe6cc;strokeColor=#d79b00;" vertex="1" parent="1">
          <mxGeometry x="480" y="150" width="110" height="50" as="geometry" />
        </mxCell>
        <mxCell id="O2sZND4Lp9p5kaOQLPMZ-31" value="" style="endArrow=none;html=1;rounded=0;" edge="1" parent="1" target="O2sZND4Lp9p5kaOQLPMZ-11">
          <mxGeometry width="50" height="50" relative="1" as="geometry">
            <mxPoint x="220" y="250" as="sourcePoint" />
            <mxPoint x="270" y="200" as="targetPoint" />
          </mxGeometry>
        </mxCell>
        <mxCell id="O2sZND4Lp9p5kaOQLPMZ-32" value="" style="ellipse;whiteSpace=wrap;html=1;" vertex="1" parent="1">
          <mxGeometry x="410" y="210" width="80" height="40" as="geometry" />
        </mxCell>
        <mxCell id="O2sZND4Lp9p5kaOQLPMZ-33" value="" style="endArrow=none;html=1;rounded=0;entryX=0.763;entryY=1;entryDx=0;entryDy=0;entryPerimeter=0;exitX=0;exitY=0;exitDx=0;exitDy=0;" edge="1" parent="1" source="O2sZND4Lp9p5kaOQLPMZ-29" target="O2sZND4Lp9p5kaOQLPMZ-32">
          <mxGeometry width="50" height="50" relative="1" as="geometry">
            <mxPoint x="450" y="330" as="sourcePoint" />
            <mxPoint x="500" y="280" as="targetPoint" />
          </mxGeometry>
        </mxCell>
        <mxCell id="O2sZND4Lp9p5kaOQLPMZ-39" value="" style="shape=partialRectangle;whiteSpace=wrap;html=1;left=0;right=0;fillColor=none;rotation=90;" vertex="1" parent="1">
          <mxGeometry x="494.38" y="233.13" width="81.25" height="10" as="geometry" />
        </mxCell>
        <mxCell id="O2sZND4Lp9p5kaOQLPMZ-40" value="" style="shape=partialRectangle;whiteSpace=wrap;html=1;left=0;right=0;fillColor=none;rotation=10;" vertex="1" parent="1">
          <mxGeometry x="230.91" y="280.97" width="249.16" height="10.06" as="geometry" />
        </mxCell>
        <mxCell id="O2sZND4Lp9p5kaOQLPMZ-42" value="" style="shape=partialRectangle;whiteSpace=wrap;html=1;left=0;right=0;fillColor=none;rotation=32;" vertex="1" parent="1">
          <mxGeometry x="206.16" y="361.22" width="315" height="8.18" as="geometry" />
        </mxCell>
        <mxCell id="O2sZND4Lp9p5kaOQLPMZ-49" value="" style="endArrow=none;html=1;rounded=0;entryX=0.255;entryY=0.14;entryDx=0;entryDy=0;entryPerimeter=0;" edge="1" parent="1" target="O2sZND4Lp9p5kaOQLPMZ-27">
          <mxGeometry width="50" height="50" relative="1" as="geometry">
            <mxPoint x="210" y="280" as="sourcePoint" />
            <mxPoint x="291" y="410" as="targetPoint" />
          </mxGeometry>
        </mxCell>
        <mxCell id="O2sZND4Lp9p5kaOQLPMZ-50" value="" style="endArrow=none;html=1;rounded=0;" edge="1" parent="1">
          <mxGeometry width="50" height="50" relative="1" as="geometry">
            <mxPoint x="180" y="280" as="sourcePoint" />
            <mxPoint x="200" y="350" as="targetPoint" />
          </mxGeometry>
        </mxCell>
        <mxCell id="O2sZND4Lp9p5kaOQLPMZ-51" value="" style="endArrow=none;html=1;rounded=0;entryX=0;entryY=0;entryDx=0;entryDy=0;exitX=0.375;exitY=1.067;exitDx=0;exitDy=0;exitPerimeter=0;" edge="1" parent="1" source="O2sZND4Lp9p5kaOQLPMZ-19" target="O2sZND4Lp9p5kaOQLPMZ-25">
          <mxGeometry width="50" height="50" relative="1" as="geometry">
            <mxPoint x="150" y="281.82" as="sourcePoint" />
            <mxPoint x="183" y="359" as="targetPoint" />
          </mxGeometry>
        </mxCell>
        <mxCell id="O2sZND4Lp9p5kaOQLPMZ-52" value="" style="ellipse;whiteSpace=wrap;html=1;" vertex="1" parent="1">
          <mxGeometry x="880" y="120" width="80" height="40" as="geometry" />
        </mxCell>
        <mxCell id="O2sZND4Lp9p5kaOQLPMZ-53" value="" style="ellipse;whiteSpace=wrap;html=1;" vertex="1" parent="1">
          <mxGeometry x="670" y="120" width="80" height="40" as="geometry" />
        </mxCell>
        <mxCell id="O2sZND4Lp9p5kaOQLPMZ-56" value="" style="rounded=0;whiteSpace=wrap;html=1;fillColor=#ffe6cc;strokeColor=#d79b00;" vertex="1" parent="1">
          <mxGeometry x="760" y="215" width="120" height="40" as="geometry" />
        </mxCell>
        <mxCell id="O2sZND4Lp9p5kaOQLPMZ-57" value="" style="rounded=0;whiteSpace=wrap;html=1;fillColor=#ffe6cc;strokeColor=#d79b00;" vertex="1" parent="1">
          <mxGeometry x="765" y="450" width="120" height="40" as="geometry" />
        </mxCell>
        <mxCell id="O2sZND4Lp9p5kaOQLPMZ-59" value="" style="endArrow=none;html=1;rounded=0;exitX=0.583;exitY=-0.078;exitDx=0;exitDy=0;exitPerimeter=0;" edge="1" parent="1">
          <mxGeometry width="50" height="50" relative="1" as="geometry">
            <mxPoint x="827" y="215" as="sourcePoint" />
            <mxPoint x="827.04" y="134.99" as="targetPoint" />
          </mxGeometry>
        </mxCell>
        <mxCell id="O2sZND4Lp9p5kaOQLPMZ-60" value="" style="endArrow=none;html=1;rounded=0;exitX=0.325;exitY=-0.003;exitDx=0;exitDy=0;exitPerimeter=0;entryX=0.688;entryY=1.05;entryDx=0;entryDy=0;entryPerimeter=0;" edge="1" parent="1" source="O2sZND4Lp9p5kaOQLPMZ-56" target="O2sZND4Lp9p5kaOQLPMZ-53">
          <mxGeometry width="50" height="50" relative="1" as="geometry">
            <mxPoint x="604.38" y="230" as="sourcePoint" />
            <mxPoint x="664.38" y="180" as="targetPoint" />
          </mxGeometry>
        </mxCell>
        <mxCell id="O2sZND4Lp9p5kaOQLPMZ-61" value="" style="endArrow=none;html=1;rounded=0;exitX=0.75;exitY=0;exitDx=0;exitDy=0;entryX=0.25;entryY=1;entryDx=0;entryDy=0;entryPerimeter=0;" edge="1" parent="1" source="O2sZND4Lp9p5kaOQLPMZ-56" target="O2sZND4Lp9p5kaOQLPMZ-52">
          <mxGeometry width="50" height="50" relative="1" as="geometry">
            <mxPoint x="689" y="228" as="sourcePoint" />
            <mxPoint x="674.38" y="190" as="targetPoint" />
          </mxGeometry>
        </mxCell>
        <mxCell id="O2sZND4Lp9p5kaOQLPMZ-62" value="" style="endArrow=none;html=1;rounded=0;entryX=0.5;entryY=1;entryDx=0;entryDy=0;" edge="1" parent="1" target="O2sZND4Lp9p5kaOQLPMZ-56">
          <mxGeometry width="50" height="50" relative="1" as="geometry">
            <mxPoint x="820" y="330" as="sourcePoint" />
            <mxPoint x="570" y="360" as="targetPoint" />
          </mxGeometry>
        </mxCell>
        <mxCell id="O2sZND4Lp9p5kaOQLPMZ-63" value="" style="endArrow=none;html=1;rounded=0;entryX=0.5;entryY=1;entryDx=0;entryDy=0;exitX=0.458;exitY=0;exitDx=0;exitDy=0;exitPerimeter=0;" edge="1" parent="1" source="O2sZND4Lp9p5kaOQLPMZ-57" target="O2sZND4Lp9p5kaOQLPMZ-26">
          <mxGeometry width="50" height="50" relative="1" as="geometry">
            <mxPoint x="705" y="430" as="sourcePoint" />
            <mxPoint x="570" y="360" as="targetPoint" />
          </mxGeometry>
        </mxCell>
        <mxCell id="O2sZND4Lp9p5kaOQLPMZ-64" value="" style="ellipse;shape=doubleEllipse;whiteSpace=wrap;html=1;" vertex="1" parent="1">
          <mxGeometry x="770" y="70" width="100" height="60" as="geometry" />
        </mxCell>
        <mxCell id="O2sZND4Lp9p5kaOQLPMZ-65" value="Fname" style="text;html=1;strokeColor=none;fillColor=none;align=center;verticalAlign=middle;whiteSpace=wrap;rounded=0;" vertex="1" parent="1">
          <mxGeometry x="25" y="20" width="60" height="30" as="geometry" />
        </mxCell>
        <mxCell id="O2sZND4Lp9p5kaOQLPMZ-66" value="sex" style="text;html=1;strokeColor=none;fillColor=none;align=center;verticalAlign=middle;whiteSpace=wrap;rounded=0;" vertex="1" parent="1">
          <mxGeometry x="384" y="150" width="60" height="30" as="geometry" />
        </mxCell>
        <mxCell id="O2sZND4Lp9p5kaOQLPMZ-67" value="salary" style="text;html=1;strokeColor=none;fillColor=none;align=center;verticalAlign=middle;whiteSpace=wrap;rounded=0;" vertex="1" parent="1">
          <mxGeometry x="365" y="70" width="60" height="30" as="geometry" />
        </mxCell>
        <mxCell id="O2sZND4Lp9p5kaOQLPMZ-68" value="addres" style="text;html=1;strokeColor=none;fillColor=none;align=center;verticalAlign=middle;whiteSpace=wrap;rounded=0;" vertex="1" parent="1">
          <mxGeometry x="265" y="100" width="60" height="30" as="geometry" />
        </mxCell>
        <mxCell id="O2sZND4Lp9p5kaOQLPMZ-69" value="Lname" style="text;html=1;strokeColor=none;fillColor=none;align=center;verticalAlign=middle;whiteSpace=wrap;rounded=0;" vertex="1" parent="1">
          <mxGeometry x="259" y="20" width="60" height="30" as="geometry" />
        </mxCell>
        <mxCell id="O2sZND4Lp9p5kaOQLPMZ-70" value="minit" style="text;html=1;strokeColor=none;fillColor=none;align=center;verticalAlign=middle;whiteSpace=wrap;rounded=0;" vertex="1" parent="1">
          <mxGeometry x="145" y="20" width="60" height="30" as="geometry" />
        </mxCell>
        <mxCell id="O2sZND4Lp9p5kaOQLPMZ-71" value="Ssn" style="text;html=1;strokeColor=none;fillColor=none;align=center;verticalAlign=middle;whiteSpace=wrap;rounded=0;" vertex="1" parent="1">
          <mxGeometry x="25" y="160" width="60" height="30" as="geometry" />
        </mxCell>
        <mxCell id="O2sZND4Lp9p5kaOQLPMZ-72" value="name" style="text;html=1;strokeColor=none;fillColor=none;align=center;verticalAlign=middle;whiteSpace=wrap;rounded=0;" vertex="1" parent="1">
          <mxGeometry x="145" y="90" width="60" height="30" as="geometry" />
        </mxCell>
        <mxCell id="O2sZND4Lp9p5kaOQLPMZ-73" value="Bdate" style="text;html=1;strokeColor=none;fillColor=none;align=center;verticalAlign=middle;whiteSpace=wrap;rounded=0;" vertex="1" parent="1">
          <mxGeometry x="25" y="90" width="60" height="30" as="geometry" />
        </mxCell>
        <mxCell id="O2sZND4Lp9p5kaOQLPMZ-74" value="CONTROLS" style="text;html=1;strokeColor=none;fillColor=none;align=center;verticalAlign=middle;whiteSpace=wrap;rounded=0;" vertex="1" parent="1">
          <mxGeometry x="790" y="349.29" width="60" height="30" as="geometry" />
        </mxCell>
        <mxCell id="O2sZND4Lp9p5kaOQLPMZ-75" value="DAPARTMENT" style="text;html=1;strokeColor=none;fillColor=none;align=center;verticalAlign=middle;whiteSpace=wrap;rounded=0;" vertex="1" parent="1">
          <mxGeometry x="800" y="223.12999999999997" width="60" height="30" as="geometry" />
        </mxCell>
        <mxCell id="O2sZND4Lp9p5kaOQLPMZ-76" value="number" style="text;html=1;strokeColor=none;fillColor=none;align=center;verticalAlign=middle;whiteSpace=wrap;rounded=0;" vertex="1" parent="1">
          <mxGeometry x="890" y="130.00000000000003" width="60" height="30" as="geometry" />
        </mxCell>
        <mxCell id="O2sZND4Lp9p5kaOQLPMZ-77" value="name" style="text;html=1;strokeColor=none;fillColor=none;align=center;verticalAlign=middle;whiteSpace=wrap;rounded=0;" vertex="1" parent="1">
          <mxGeometry x="680" y="125" width="60" height="30" as="geometry" />
        </mxCell>
        <mxCell id="O2sZND4Lp9p5kaOQLPMZ-78" value="Locations" style="text;html=1;strokeColor=none;fillColor=none;align=center;verticalAlign=middle;whiteSpace=wrap;rounded=0;" vertex="1" parent="1">
          <mxGeometry x="790" y="82" width="60" height="30" as="geometry" />
        </mxCell>
        <mxCell id="O2sZND4Lp9p5kaOQLPMZ-79" value="SUPERVISION" style="text;html=1;strokeColor=none;fillColor=none;align=center;verticalAlign=middle;whiteSpace=wrap;rounded=0;" vertex="1" parent="1">
          <mxGeometry x="141" y="356.27" width="60" height="20" as="geometry" />
        </mxCell>
        <mxCell id="O2sZND4Lp9p5kaOQLPMZ-80" value="EMPLOYEE" style="text;html=1;strokeColor=none;fillColor=none;align=center;verticalAlign=middle;whiteSpace=wrap;rounded=0;" vertex="1" parent="1">
          <mxGeometry x="141" y="250" width="60" height="30" as="geometry" />
        </mxCell>
        <mxCell id="O2sZND4Lp9p5kaOQLPMZ-82" value="DEPENDENTS-OF" style="text;html=1;strokeColor=none;fillColor=none;align=center;verticalAlign=middle;whiteSpace=wrap;rounded=0;" vertex="1" parent="1">
          <mxGeometry x="282.25" y="395" width="104.5" height="20" as="geometry" />
        </mxCell>
        <mxCell id="O2sZND4Lp9p5kaOQLPMZ-83" value="Start_date" style="text;html=1;strokeColor=none;fillColor=none;align=center;verticalAlign=middle;whiteSpace=wrap;rounded=0;" vertex="1" parent="1">
          <mxGeometry x="420" y="215" width="60" height="30" as="geometry" />
        </mxCell>
        <mxCell id="O2sZND4Lp9p5kaOQLPMZ-84" value="WORKS_ON" style="text;html=1;strokeColor=none;fillColor=none;align=center;verticalAlign=middle;whiteSpace=wrap;rounded=0;" vertex="1" parent="1">
          <mxGeometry x="515.63" y="435" width="60" height="30" as="geometry" />
        </mxCell>
        <mxCell id="O2sZND4Lp9p5kaOQLPMZ-85" value="PROJECT" style="text;html=1;strokeColor=none;fillColor=none;align=center;verticalAlign=middle;whiteSpace=wrap;rounded=0;" vertex="1" parent="1">
          <mxGeometry x="790" y="460" width="60" height="30" as="geometry" />
        </mxCell>
        <mxCell id="O2sZND4Lp9p5kaOQLPMZ-86" value="" style="ellipse;whiteSpace=wrap;html=1;" vertex="1" parent="1">
          <mxGeometry x="620" y="350" width="70" height="38.73" as="geometry" />
        </mxCell>
        <mxCell id="O2sZND4Lp9p5kaOQLPMZ-87" value="" style="ellipse;whiteSpace=wrap;html=1;" vertex="1" parent="1">
          <mxGeometry x="690" y="541.27" width="70" height="38.73" as="geometry" />
        </mxCell>
        <mxCell id="O2sZND4Lp9p5kaOQLPMZ-88" value="WORKS_FOR" style="text;html=1;strokeColor=none;fillColor=none;align=center;verticalAlign=middle;whiteSpace=wrap;rounded=0;" vertex="1" parent="1">
          <mxGeometry x="500" y="160" width="70" height="30" as="geometry" />
        </mxCell>
        <mxCell id="O2sZND4Lp9p5kaOQLPMZ-89" value="MANAGES" style="text;html=1;strokeColor=none;fillColor=none;align=center;verticalAlign=middle;whiteSpace=wrap;rounded=0;" vertex="1" parent="1">
          <mxGeometry x="510" y="290" width="60" height="30" as="geometry" />
        </mxCell>
        <mxCell id="O2sZND4Lp9p5kaOQLPMZ-90" value="" style="endArrow=none;html=1;rounded=0;exitX=1;exitY=0;exitDx=0;exitDy=0;" edge="1" parent="1" source="O2sZND4Lp9p5kaOQLPMZ-28">
          <mxGeometry width="50" height="50" relative="1" as="geometry">
            <mxPoint x="550" y="418.73" as="sourcePoint" />
            <mxPoint x="640" y="390" as="targetPoint" />
          </mxGeometry>
        </mxCell>
        <mxCell id="O2sZND4Lp9p5kaOQLPMZ-91" value="hours" style="text;html=1;strokeColor=none;fillColor=none;align=center;verticalAlign=middle;whiteSpace=wrap;rounded=0;" vertex="1" parent="1">
          <mxGeometry x="625" y="354.37" width="60" height="30" as="geometry" />
        </mxCell>
        <mxCell id="O2sZND4Lp9p5kaOQLPMZ-96" value="name" style="text;html=1;strokeColor=none;fillColor=none;align=center;verticalAlign=middle;whiteSpace=wrap;rounded=0;" vertex="1" parent="1">
          <mxGeometry x="695" y="545.63" width="60" height="30" as="geometry" />
        </mxCell>
        <mxCell id="O2sZND4Lp9p5kaOQLPMZ-97" value="" style="endArrow=none;html=1;rounded=0;entryX=0.5;entryY=1;entryDx=0;entryDy=0;" edge="1" parent="1" target="O2sZND4Lp9p5kaOQLPMZ-85">
          <mxGeometry width="50" height="50" relative="1" as="geometry">
            <mxPoint x="750" y="540" as="sourcePoint" />
            <mxPoint x="800" y="490" as="targetPoint" />
          </mxGeometry>
        </mxCell>
        <mxCell id="O2sZND4Lp9p5kaOQLPMZ-98" value="Number-Of_employes" style="ellipse;whiteSpace=wrap;html=1;align=center;dashed=1;" vertex="1" parent="1">
          <mxGeometry x="580" y="220" width="98.34" height="40" as="geometry" />
        </mxCell>
        <mxCell id="O2sZND4Lp9p5kaOQLPMZ-99" value="" style="line;strokeWidth=1;rotatable=0;dashed=0;labelPosition=right;align=left;verticalAlign=middle;spacingTop=0;spacingLeft=6;points=[];portConstraint=eastwest;" vertex="1" parent="1">
          <mxGeometry x="680" y="230" width="80" height="10" as="geometry" />
        </mxCell>
        <mxCell id="O2sZND4Lp9p5kaOQLPMZ-106" value="" style="ellipse;whiteSpace=wrap;html=1;" vertex="1" parent="1">
          <mxGeometry x="790" y="565" width="70" height="38.73" as="geometry" />
        </mxCell>
        <mxCell id="O2sZND4Lp9p5kaOQLPMZ-107" value="number" style="text;html=1;strokeColor=none;fillColor=none;align=center;verticalAlign=middle;whiteSpace=wrap;rounded=0;" vertex="1" parent="1">
          <mxGeometry x="795" y="569.36" width="60" height="30" as="geometry" />
        </mxCell>
        <mxCell id="O2sZND4Lp9p5kaOQLPMZ-108" value="" style="ellipse;whiteSpace=wrap;html=1;" vertex="1" parent="1">
          <mxGeometry x="880" y="565" width="70" height="38.73" as="geometry" />
        </mxCell>
        <mxCell id="O2sZND4Lp9p5kaOQLPMZ-109" value="locationm" style="text;html=1;strokeColor=none;fillColor=none;align=center;verticalAlign=middle;whiteSpace=wrap;rounded=0;" vertex="1" parent="1">
          <mxGeometry x="885" y="565.63" width="60" height="30" as="geometry" />
        </mxCell>
        <mxCell id="O2sZND4Lp9p5kaOQLPMZ-110" value="" style="endArrow=none;html=1;rounded=0;entryX=0.5;entryY=1;entryDx=0;entryDy=0;" edge="1" parent="1" target="O2sZND4Lp9p5kaOQLPMZ-85">
          <mxGeometry width="50" height="50" relative="1" as="geometry">
            <mxPoint x="820" y="560" as="sourcePoint" />
            <mxPoint x="810" y="500" as="targetPoint" />
          </mxGeometry>
        </mxCell>
        <mxCell id="O2sZND4Lp9p5kaOQLPMZ-111" value="" style="endArrow=none;html=1;rounded=0;entryX=0.5;entryY=1;entryDx=0;entryDy=0;exitX=0.4;exitY=-0.054;exitDx=0;exitDy=0;exitPerimeter=0;" edge="1" parent="1" source="O2sZND4Lp9p5kaOQLPMZ-109" target="O2sZND4Lp9p5kaOQLPMZ-85">
          <mxGeometry width="50" height="50" relative="1" as="geometry">
            <mxPoint x="830" y="570" as="sourcePoint" />
            <mxPoint x="830" y="500" as="targetPoint" />
          </mxGeometry>
        </mxCell>
      </root>
    </mxGraphModel>
  </diagram>
</mxfile>
